<svg width="21" height="20" viewBox="0 0 21 20" fill="none" xmlns="http://www.w3.org/2000/svg">
<g id="mdi:account">
<path id="Vector" d="M10.5317 3.53931C11.395 3.53931 12.223 3.88227 12.8335 4.49276C13.444 5.10324 13.787 5.93123 13.787 6.79458C13.787 7.65794 13.444 8.48593 12.8335 9.09641C12.223 9.7069 11.395 10.0499 10.5317 10.0499C9.66832 10.0499 8.84033 9.7069 8.22985 9.09641C7.61936 8.48593 7.2764 7.65794 7.2764 6.79458C7.2764 5.93123 7.61936 5.10324 8.22985 4.49276C8.84033 3.88227 9.66832 3.53931 10.5317 3.53931ZM10.5317 11.6775C14.1288 11.6775 17.0422 13.1342 17.0422 14.9328V16.5604H4.02112V14.9328C4.02112 13.1342 6.93459 11.6775 10.5317 11.6775Z" fill="#5E5E5E"/>
</g>
</svg>
