<svg width="48" height="48" viewBox="0 0 48 48" fill="none" xmlns="http://www.w3.org/2000/svg">
<path d="M24.2468 45.5132C12.6407 45.5132 3.20703 36.0795 3.20703 24.4734C3.20703 12.8673 12.6407 3.43359 24.2468 3.43359C35.853 3.43359 45.2867 12.8673 45.2867 24.4734C45.2867 36.0795 35.853 45.5132 24.2468 45.5132ZM24.2468 6.36938C14.2652 6.36938 6.14282 14.4917 6.14282 24.4734C6.14282 34.4551 14.2652 42.5774 24.2468 42.5774C34.2285 42.5774 42.3509 34.4551 42.3509 24.4734C42.3509 14.4917 34.2285 6.36938 24.2468 6.36938Z" fill="#457EFF"/>
<path d="M18.7081 31.4803C18.3363 31.4803 17.9644 31.3433 17.6708 31.0497C17.1032 30.4821 17.1032 29.5427 17.6708 28.9751L28.7485 17.8974C29.3161 17.3298 30.2555 17.3298 30.8231 17.8974C31.3907 18.465 31.3907 19.4044 30.8231 19.972L19.7454 31.0497C19.4714 31.3433 19.08 31.4803 18.7081 31.4803Z" fill="#457EFF"/>
<path d="M29.7858 31.4803C29.414 31.4803 29.0421 31.3433 28.7485 31.0497L17.6708 19.972C17.1032 19.4044 17.1032 18.465 17.6708 17.8974C18.2384 17.3298 19.1778 17.3298 19.7454 17.8974L30.8231 28.9751C31.3907 29.5427 31.3907 30.4821 30.8231 31.0497C30.5296 31.3433 30.1577 31.4803 29.7858 31.4803Z" fill="#457EFF"/>
</svg>
