<svg width="59" height="58" viewBox="0 0 59 58" fill="none" xmlns="http://www.w3.org/2000/svg">
<g id="feather:upload-cloud">
<g id="Group">
<path id="Vector" d="M39.2534 38.6376L29.6472 29.0314L20.041 38.6376" stroke="#4676FB" stroke-width="2.40155" stroke-linecap="round" stroke-linejoin="round"/>
<path id="Vector_2" d="M29.6472 29.0312L29.6472 50.6452" stroke="#4676FB" stroke-width="2.40155" stroke-linecap="round" stroke-linejoin="round"/>
<path id="Vector_3" d="M49.7961 44.377C52.1384 43.1001 53.9888 41.0794 55.0552 38.634C56.1216 36.1886 56.3433 33.4577 55.6852 30.8724C55.0272 28.287 53.5269 25.9944 51.4212 24.3564C49.3155 22.7184 46.7242 21.8282 44.0564 21.8265H41.0305C40.3036 19.0149 38.9487 16.4046 37.0678 14.1919C35.1869 11.9793 32.8288 10.2218 30.1709 9.05171C27.513 7.88157 24.6244 7.3292 21.7223 7.43612C18.8202 7.54305 15.9801 8.30649 13.4155 9.66904C10.8509 11.0316 8.62856 12.9578 6.91556 15.3029C5.20256 17.6479 4.04347 20.3508 3.52543 23.2083C3.00739 26.0658 3.14389 29.0036 3.92465 31.8007C4.70541 34.5979 6.11013 37.1817 8.03319 39.3578" stroke="#4676FB" stroke-width="2.40155" stroke-linecap="round" stroke-linejoin="round"/>
<path id="Vector_4" d="M39.2534 38.6376L29.6472 29.0314L20.041 38.6376" stroke="#4676FB" stroke-width="2.40155" stroke-linecap="round" stroke-linejoin="round"/>
</g>
</g>
</svg>
