<svg width="32" height="32" viewBox="0 0 32 32" fill="none" xmlns="http://www.w3.org/2000/svg">
<path d="M10.3456 25.1637H7.87984C4.10427 24.894 2.40918 21.9917 2.40918 19.4104C2.40918 16.8292 4.10428 13.914 7.81565 13.6572C8.34217 13.6058 8.80447 14.0167 8.843 14.5561C8.88152 15.0826 8.48348 15.545 7.94411 15.5835C5.45275 15.7633 4.33549 17.6382 4.33549 19.4233C4.33549 21.2083 5.45275 23.0833 7.94411 23.263H10.3456C10.8721 23.263 11.3087 23.6997 11.3087 24.2262C11.3087 24.7527 10.8721 25.1637 10.3456 25.1637Z" fill="#292D32"/>
<path d="M22.172 25.1636C22.1463 25.1636 22.1335 25.1636 22.1078 25.1636C21.5813 25.1636 21.0933 24.7269 21.0933 24.2004C21.0933 23.6482 21.5042 23.2373 22.0436 23.2373C23.6232 23.2373 25.0358 22.685 26.1402 21.6962C28.1436 19.9497 28.272 17.4326 27.7326 15.6604C27.1933 13.9011 25.6907 11.8849 23.071 11.5638C22.6472 11.5124 22.3132 11.1914 22.2362 10.7676C21.7225 7.6855 20.0659 5.55371 17.5489 4.78319C14.9548 3.97413 11.924 4.77034 10.0362 6.74802C8.19979 8.66149 7.77601 11.3455 8.8419 14.2992C9.02169 14.8 8.76491 15.3522 8.26407 15.532C7.76323 15.7118 7.21099 15.455 7.0312 14.9541C5.73415 11.3326 6.3249 7.86529 8.64932 5.42529C11.0251 2.93392 14.8392 1.94507 18.1139 2.94676C21.119 3.87139 23.2379 6.34991 24.0084 9.79159C26.6282 10.3823 28.7343 12.3729 29.569 15.1211C30.4808 18.1133 29.6589 21.1954 27.4116 23.1474C25.9861 24.4316 24.124 25.1636 22.172 25.1636Z" fill="#292D32"/>
<path d="M16.1752 28.9393C13.594 28.9393 11.1797 27.5652 9.85693 25.3435C9.71567 25.1252 9.57441 24.8684 9.45883 24.5858C9.0222 23.674 8.79102 22.6338 8.79102 21.5551C8.79102 17.4842 12.1043 14.1709 16.1752 14.1709C20.2462 14.1709 23.5594 17.4842 23.5594 21.5551C23.5594 22.6467 23.3283 23.674 22.866 24.6244C22.7632 24.8684 22.622 25.1252 22.4679 25.3692C21.1708 27.5652 18.7565 28.9393 16.1752 28.9393ZM16.1752 16.0972C13.1702 16.0972 10.7173 18.5501 10.7173 21.5551C10.7173 22.3513 10.8843 23.0961 11.2053 23.7768C11.3081 23.9951 11.3979 24.1749 11.5007 24.3418C12.4767 25.9985 14.2617 27.013 16.1624 27.013C18.063 27.013 19.848 25.9985 20.8112 24.3675C20.9268 24.1749 21.0296 23.9951 21.1066 23.8153C21.4533 23.109 21.6202 22.3641 21.6202 21.5679C21.6331 18.55 19.1803 16.0972 16.1752 16.0972Z" fill="#292D32"/>
<path d="M15.4433 23.7894C15.1993 23.7894 14.9553 23.6995 14.7627 23.5069L13.4912 22.2355C13.1188 21.8631 13.1188 21.2467 13.4912 20.8743C13.8636 20.5019 14.4801 20.5019 14.8525 20.8743L15.469 21.4907L17.5237 19.5901C17.9218 19.2305 18.5253 19.2562 18.8849 19.6414C19.2445 20.0267 19.2188 20.6431 18.8336 21.0027L16.0982 23.5326C15.9056 23.6996 15.6744 23.7894 15.4433 23.7894Z" fill="#292D32"/>
</svg>
