<svg width="21" height="21" viewBox="0 0 21 21" fill="none" xmlns="http://www.w3.org/2000/svg">
<path d="M15.4146 8.75244H11.3455" stroke="#5E5E5E" stroke-width="1.22073" stroke-linecap="round"/>
<path d="M8.90405 3.05591H14.1939C14.5715 3.05591 14.7611 3.05591 14.9198 3.07707C15.4525 3.14731 15.9471 3.39129 16.327 3.7712C16.7069 4.1511 16.9508 4.6457 17.0211 5.17835C17.0422 5.33704 17.0422 5.52666 17.0422 5.90428" stroke="#5E5E5E" stroke-width="1.22073"/>
<path d="M2.39355 6.27035C2.39355 5.55175 2.39355 5.19285 2.45052 4.89337C2.57196 4.25032 2.8844 3.6588 3.34707 3.19599C3.80974 2.73318 4.40116 2.42055 5.04417 2.29891C5.34446 2.24194 5.70417 2.24194 6.42196 2.24194C6.7361 2.24194 6.89398 2.24194 7.04535 2.25578C7.69725 2.317 8.31555 2.57339 8.81947 2.99147C8.93666 3.08832 9.04734 3.199 9.27033 3.42198L9.71793 3.86958C10.382 4.53366 10.714 4.8657 11.1112 5.08624C11.3295 5.2079 11.561 5.30402 11.8013 5.37271C12.2391 5.49722 12.7087 5.49722 13.6471 5.49722H13.9514C16.0934 5.49722 17.1652 5.49722 17.861 6.12386C17.9253 6.18083 17.9863 6.24187 18.0433 6.30616C18.6699 7.00197 18.6699 8.07377 18.6699 10.2157V12.0078C18.6699 15.0767 18.6699 16.6116 17.7161 17.5645C16.7632 18.5183 15.2283 18.5183 12.1594 18.5183H8.90411C5.8352 18.5183 4.30033 18.5183 3.34735 17.5645C2.39355 16.6116 2.39355 15.0767 2.39355 12.0078V6.27035Z" stroke="#5E5E5E" stroke-width="1.22073"/>
</svg>
