<svg width="21" height="21" viewBox="0 0 21 21" fill="none" xmlns="http://www.w3.org/2000/svg">
<path d="M9.71791 15.1362H11.3455V17.5777H9.71791V15.1362ZM13.787 17.5777V19.2053H7.27645V17.5777H13.787ZM17.0423 15.1362H4.02117C3.37385 15.1356 2.75323 14.8781 2.29551 14.4204C1.83779 13.9627 1.58036 13.3421 1.57971 12.6947V3.74273C1.58036 3.09541 1.83779 2.47479 2.29551 2.01707C2.75323 1.55935 3.37385 1.30192 4.02117 1.30127H17.0423C17.6896 1.30192 18.3102 1.55935 18.7679 2.01707C19.2257 2.47479 19.4831 3.09541 19.4837 3.74273V12.6947C19.4831 13.3421 19.2257 13.9627 18.7679 14.4204C18.3102 14.8781 17.6896 15.1356 17.0423 15.1362ZM4.02117 2.92891C3.80533 2.92891 3.59833 3.01465 3.44571 3.16727C3.29309 3.31989 3.20735 3.52689 3.20735 3.74273V12.6947C3.20735 12.9106 3.29309 13.1176 3.44571 13.2702C3.59833 13.4228 3.80533 13.5086 4.02117 13.5086H17.0423C17.2581 13.5086 17.4651 13.4228 17.6177 13.2702C17.7704 13.1176 17.8561 12.9106 17.8561 12.6947V3.74273C17.8561 3.52689 17.7704 3.31989 17.6177 3.16727C17.4651 3.01465 17.2581 2.92891 17.0423 2.92891H4.02117Z" fill="#5E5E5E"/>
<path d="M13.787 12.6947L12.2293 7.50252L11.3455 11.0671L10.2802 8.62559H10.0109L8.90406 11.8809L7.96247 8.57107L7.52789 9.43941H4.83496V8.62559H7.02495L8.09024 6.18413L8.9594 9.20585L9.4249 7.81177H10.7832L11.1795 8.60362L12.1593 3.74268L13.787 10.2532L14.3078 8.62559H16.2284V9.43941H14.8938L13.787 12.6947Z" fill="#5E5E5E"/>
</svg>
