<svg width="21" height="20" viewBox="0 0 21 20" fill="none" xmlns="http://www.w3.org/2000/svg">
<g id="mynaui:radio">
<path id="Vector" d="M7.72479 12.9386C7.32516 12.5435 7.00764 12.0734 6.79053 11.5551C6.46379 10.7759 6.37817 9.91663 6.54471 9.08829C6.71125 8.25994 7.1223 7.50054 7.72479 6.90817M15.4715 4.63354C16.1717 5.32523 16.7278 6.1489 17.1076 7.05688C17.4874 7.96486 17.6835 8.93915 17.6843 9.92337C17.6834 10.9077 17.4872 11.882 17.1073 12.79C16.7273 13.6979 16.1711 14.5216 15.4707 15.2132M13.1684 6.90817C13.5681 7.30317 13.8856 7.77337 14.1027 8.29166C14.4295 9.07084 14.5152 9.93012 14.3487 10.7585C14.1821 11.5869 13.771 12.3463 13.1684 12.9386M5.25159 15.2132C4.55141 14.5215 3.99532 13.6978 3.6155 12.7899C3.23569 11.8819 3.03968 10.9076 3.03882 9.92337C3.03882 7.93928 3.83473 6.03657 5.25241 4.63354M10.5317 11.1441C10.8554 11.1441 11.1659 11.0155 11.3948 10.7866C11.6238 10.5576 11.7524 10.2471 11.7524 9.92337C11.7524 9.59961 11.6238 9.28912 11.3948 9.06019C11.1659 8.83125 10.8554 8.70264 10.5317 8.70264C10.2079 8.70264 9.8974 8.83125 9.66847 9.06019C9.43954 9.28912 9.31093 9.59961 9.31093 9.92337C9.31093 10.2471 9.43954 10.5576 9.66847 10.7866C9.8974 11.0155 10.2079 11.1441 10.5317 11.1441Z" stroke="#5E5E5E" stroke-width="1.22073" stroke-linecap="round" stroke-linejoin="round"/>
</g>
</svg>
