<svg width="21" height="21" viewBox="0 0 21 21" fill="none" xmlns="http://www.w3.org/2000/svg">
<g id="tdesign:verify">
<path id="Vector" d="M1.57971 3.26855H19.4837V17.9173H1.57971V3.26855ZM3.20735 4.89619V16.2897H17.8561V4.89619H3.20735ZM13.3801 8.55838C13.5959 8.55838 13.8029 8.64412 13.9556 8.79674C14.1082 8.94937 14.1939 9.15636 14.1939 9.3722C14.1939 9.58804 14.1082 9.79504 13.9556 9.94766C13.8029 10.1003 13.5959 10.186 13.3801 10.186C13.1643 10.186 12.9573 10.1003 12.8046 9.94766C12.652 9.79504 12.5663 9.58804 12.5663 9.3722C12.5663 9.15636 12.652 8.94937 12.8046 8.79674C12.9573 8.64412 13.1643 8.55838 13.3801 8.55838ZM15.3333 10.8371C15.6053 10.4744 15.771 10.043 15.8117 9.59146C15.8524 9.13988 15.7666 8.68589 15.5638 8.28035C15.361 7.87481 15.0493 7.53374 14.6636 7.29537C14.278 7.057 13.8335 6.93074 13.3801 6.93074C12.9267 6.93074 12.4822 7.057 12.0965 7.29537C11.7109 7.53374 11.3992 7.87481 11.1964 8.28035C10.9936 8.68589 10.9078 9.13988 10.9485 9.59146C10.9892 10.043 11.1549 10.4744 11.4269 10.8371C11.0224 11.14 10.694 11.5332 10.468 11.9852C10.2419 12.4373 10.1244 12.9359 10.1248 13.4413V14.2551H11.7525V13.4413C11.7525 13.0096 11.9239 12.5956 12.2292 12.2904C12.5344 11.9851 12.9484 11.8137 13.3801 11.8137C13.8118 11.8137 14.2258 11.9851 14.531 12.2904C14.8363 12.5956 15.0077 13.0096 15.0077 13.4413V14.2551H16.6354V13.4413C16.6354 12.376 16.1243 11.4312 15.3333 10.8371ZM4.83499 8.15147H8.49718V9.77911H4.83499V8.15147ZM4.83499 11.4068H8.49718V13.0344H4.83499V11.4068Z" fill="#5E5E5E"/>
</g>
</svg>
